<svg xmlns="http://www.w3.org/2000/svg" width="156.316mm" height="76.4882mm" viewBox="0 0 15631.75 7648.625">
  <g id="Слой_x0020_1" transform="translate(-0.25 -0.125)">
    <g id="_2132248773040">
      <path id="Path_59" data-name="Path 59" d="M3519,7525,1367,5374c-303-293-330-481-278-663,39-139,124-274,215-362l517-527L4817,6826l-699,699C3953,7690,3684,7690,3519,7525Z" fill="#c22c29" fill-rule="evenodd"/>
      <path id="Path_60" data-name="Path 60" d="M124,3529,3345,307c154-154,355-138,438,16,66,122,72,315,75,526,3,377,12,803-13,956L1368,4282c-449,449-335,772-7,1085C973,5024,493,4497,124,4128-41,3963-41,3693,124,3529Z" fill="#c5c6c6" fill-rule="evenodd"/>
      <path id="Path_61" data-name="Path 61" d="M5258,2393l1104-4L7795,3821l-1934-5H5760c-111,5-165-40-240-64-166-53-252-169-276-331-16-112,8-245,9-399l5-629Z" fill="#005ac2" fill-rule="evenodd"/>
      <path id="Path_70" data-name="Path 70" d="M7058.441,3080.982,7795,3821l-1934-5H5760c-111,5-165-40-240-64-166-53-252-169-276-331-16-112-58.354-186.018-57.354-340.018Z" fill="#ffd500" fill-rule="evenodd"/>
      <path id="Path_62" data-name="Path 62" d="M4245,3816c-233,0-427-198-424-424l37-2334c1-294,2-648-123-788-75-84-203-91-396,42C3503,167,3600-30,3875,4c115,22,139,36,234,104L5295,1294l-50,2057c1,51-1,66,12,115,69,244,306,351,644,350Z" fill="#ff4845" fill-rule="evenodd"/>
      <path id="Path_63" data-name="Path 63" d="M4897,5656h172c83,0,148-20,196-61,47-41,71-96,71-167,0-70-24-123-70-161s-112-57-197-57H4897Zm0-736h137c82,0,145-18,191-53,46-36,69-86,69-151s-22-112-65-142c-44-31-112-46-204-46H4897ZM4519,5970V4234h537c202,0,355,36,458,110s155,184,155,329c0,89-23,164-70,226-48,62-119,110-214,144,106,25,188,74,248,148,60,75,90,166,90,274,0,167-61,293-185,378q-184.5,127.5-548,127Z"/>
      <path id="Path_64" data-name="Path 64" d="M5880,5972l350-1743h30l637,1099,601-1099h30l353,1743H7498l-143-771-454,833h-27l-486-845-148,783Z"/>
      <path id="Path_65" data-name="Path 65" d="M9050,4551h-57v468h76c106,0,187-21,242-61,56-41,84-100,84-176,0-80-28-139-83-176C9258,4569,9170,4551,9050,4551ZM8575,5982V4229h451c139,0,249,9,330,30,82,20,154,54,217,101,65,48,116,107,152,179a495,495,0,0,1,54,226c0,178-64,318-190,422s-297,156-513,156h-51c-11-1-22-2-32-2v641Z"/>
      <path id="Path_66" data-name="Path 66" d="M10235,5445h444l-219-530Zm-633,537,863-1744h25l844,1744h-423l-107-246h-686l-110,246Z"/>
      <path id="Path_67" data-name="Path 67" d="M11956,4556h-69v483h88c105,0,185-22,241-64,55-42,82-103,82-182,0-84-26-144-80-181S12077,4556,11956,4556Zm-473,1426V4238h448c144,0,255,10,335,29,79,19,149,50,210,94a487.711,487.711,0,0,1,151,172c36,69,53,141,53,217,0,110-28,206-84,289-55,82-136,147-241,194l532,749h-475l-466-685h-59v685Z"/>
      <path id="Path_68" data-name="Path 68" d="M13379,5982V4599h-556V4234h1527v365h-554V5982Z"/>
      <path id="Path_69" data-name="Path 69" d="M14533,5477c104,64,192,108,265,134,72,25,143,38,212,38,70,0,126-16,169-46,42-31,63-70,63-118,0-69-75-147-226-233-24-14-43-25-56-33l-114-65c-111-62-194-134-247-213-54-79-81-169-81-269,0-137,52-248,154-335,103-88,235-131,398-131q90,0,195,21c70,14,147,36,233,65v397c-82-51-159-91-232-119-74-27-136-41-187-41-57,0-102,12-134,36-33,24-49,58-49,100,0,29,9,57,29,82,19,26,48,49,87,70l199,110c166,92,277,176,335,254,57,78,86,170,86,277,0,165-57,298-169,400-113,101-261,152-447,152-63,0-132-7-206-20-73-13-155-34-243-62Z"/>
    </g>
  </g>
</svg>
