<?xml version="1.0" encoding="utf-8"?>
<!-- Generator: Adobe Illustrator 24.0.1, SVG Export Plug-In . SVG Version: 6.00 Build 0)  -->
<svg version="1.1" id="Слой_1" xmlns="http://www.w3.org/2000/svg" xmlns:xlink="http://www.w3.org/1999/xlink" x="0px" y="0px"
	 viewBox="0 0 123.6 50" style="enable-background:new 0 0 123.6 50;" xml:space="preserve">
<style type="text/css">
	.st0{fill:#FFFFFF;}
</style>
<g>
	<path class="st0" d="M18.8,0.3C19,0.5,19.1,0.7,19.1,1v3.9c0,0.3-0.1,0.5-0.3,0.7c-0.2,0.2-0.4,0.3-0.7,0.3H6.8v18.8
		c0,0.3-0.1,0.5-0.3,0.7c-0.2,0.2-0.4,0.3-0.7,0.3H1c-0.3,0-0.5-0.1-0.7-0.3S0,25,0,24.7V1c0-0.3,0.1-0.5,0.3-0.7S0.7,0,1,0h17.1
		C18.4,0,18.6,0.1,18.8,0.3z"/>
	<path class="st0" d="M39.4,2.2c1.8,1.5,2.7,3.6,2.7,6.4s-0.9,5-2.7,6.4c-1.8,1.5-4.3,2.2-7.5,2.2h-4.7v7.5c0,0.3-0.1,0.5-0.3,0.7
		c-0.2,0.2-0.4,0.3-0.7,0.3h-4.8c-0.3,0-0.5-0.1-0.7-0.3c-0.2-0.2-0.3-0.4-0.3-0.7V1c0-0.3,0.1-0.5,0.3-0.7C21,0.1,21.2,0,21.5,0H32
		C35.2,0,37.6,0.7,39.4,2.2z M31.8,11.5c1.1,0,1.9-0.2,2.6-0.7c0.6-0.5,1-1.2,1-2.2s-0.3-1.7-1-2.2c-0.6-0.5-1.5-0.7-2.6-0.7h-4.5
		v5.8C27.3,11.5,31.8,11.5,31.8,11.5z"/>
	<path class="st0" d="M68.9,24.3c0.1,0.2,0.1,0.4,0.1,0.5c0,0.2-0.1,0.4-0.2,0.6c-0.2,0.2-0.3,0.2-0.6,0.2h-4.6
		c-0.4,0-0.7-0.1-1-0.3c-0.2-0.2-0.4-0.4-0.5-0.6l-1-3h-9.8l-1,3c-0.1,0.2-0.2,0.5-0.5,0.6c-0.2,0.2-0.6,0.3-1,0.3h-4.6
		c-0.2,0-0.4-0.1-0.6-0.2c-0.2-0.2-0.2-0.3-0.2-0.6c0-0.1,0-0.3,0.1-0.5l8-23.1c0.1-0.3,0.3-0.6,0.6-0.9C52.5,0.1,52.9,0,53.3,0h5.9
		c0.4,0,0.8,0.1,1.1,0.3s0.5,0.5,0.6,0.9L68.9,24.3z M59.3,16l-3-8.8l-3,8.8H59.3z"/>
	<path class="st0" d="M93.5,0.3c0.2,0.2,0.3,0.4,0.3,0.7v23.7c0,0.3-0.1,0.5-0.3,0.7c-0.2,0.2-0.4,0.3-0.7,0.3H88
		c-0.3,0-0.5-0.1-0.7-0.3C87.1,25.2,87,25,87,24.7v-9h-8.2v9c0,0.3-0.1,0.5-0.3,0.7c-0.2,0.2-0.4,0.3-0.7,0.3H73
		c-0.3,0-0.5-0.1-0.7-0.3C72.1,25.2,72,25,72,24.7V1c0-0.3,0.1-0.5,0.3-0.7C72.5,0.1,72.7,0,73,0h4.8c0.3,0,0.5,0.1,0.7,0.3
		s0.3,0.4,0.3,0.7v8.8H87V1c0-0.3,0.1-0.5,0.3-0.7C87.5,0.1,87.7,0,88,0h4.8C93,0,93.3,0.1,93.5,0.3z"/>
	<path class="st0" d="M98.2,25.7c-0.3,0-0.5-0.1-0.7-0.3c-0.2-0.2-0.3-0.4-0.3-0.7v-3.9c0-0.3,0.1-0.5,0.3-0.7
		c0.2-0.2,0.4-0.3,0.7-0.3h0.2c0.9,0,1.5-0.3,1.9-0.9s0.6-1.6,0.6-2.9V1c0-0.3,0.1-0.5,0.3-0.7c0.2-0.2,0.4-0.3,0.7-0.3h18.6
		c0.3,0,0.5,0.1,0.7,0.3s0.3,0.4,0.3,0.7v18.8h1.2c0.3,0,0.5,0.1,0.7,0.3c0.2,0.2,0.3,0.4,0.3,0.7v3.9c0,0.3-0.1,0.5-0.3,0.7
		c-0.2,0.2-0.4,0.3-0.7,0.3C122.7,25.7,98.2,25.7,98.2,25.7z M114.7,5.9h-7v10.5c0,1.8-0.2,2.9-0.7,3.4h7.7V5.9z"/>
</g>
<g>
	<path class="st0" d="M16.5,35.6c0.1,0.1,0.2,0.2,0.2,0.4v13.3c0,0.2-0.1,0.3-0.2,0.4c-0.1,0.1-0.2,0.2-0.4,0.2h-0.8
		c-0.2,0-0.3-0.1-0.4-0.2c-0.1-0.1-0.2-0.2-0.2-0.4v-5.8H7.4v5.8c0,0.2-0.1,0.3-0.2,0.4c-0.1,0.1-0.2,0.2-0.4,0.2H6
		c-0.2,0-0.3-0.1-0.4-0.2c-0.1-0.1-0.2-0.2-0.2-0.4V36c0-0.2,0.1-0.3,0.2-0.4c0.1-0.1,0.2-0.2,0.4-0.2h0.8c0.2,0,0.3,0.1,0.4,0.2
		c0.1,0.1,0.2,0.2,0.2,0.4v5.6h7.2V36c0-0.2,0.1-0.3,0.2-0.4c0.1-0.1,0.2-0.2,0.4-0.2H16C16.2,35.4,16.3,35.5,16.5,35.6z"/>
	<path class="st0" d="M22.6,47.1c0.7,0.7,1.6,1,2.8,1c1.2,0,2.1-0.3,2.7-0.8s1-1.2,1.1-2c0-0.1,0.1-0.2,0.2-0.3s0.2-0.1,0.3-0.1h0.9
		c0.1,0,0.2,0,0.3,0.1c0.1,0.1,0.1,0.2,0.1,0.3c0,0.7-0.2,1.4-0.7,2.1c-0.4,0.7-1,1.3-1.9,1.8s-1.9,0.7-3.2,0.7
		c-1.1,0-2.2-0.2-3-0.7c-0.9-0.5-1.5-1.1-2-2c-0.5-0.8-0.7-1.8-0.8-2.9c0-0.4,0-1,0-1.8s0-1.4,0-1.8c0-1.1,0.3-2,0.8-2.9
		c0.5-0.8,1.1-1.5,2-2s1.9-0.7,3-0.7c1.3,0,2.3,0.2,3.2,0.7c0.9,0.5,1.5,1.1,1.9,1.8s0.6,1.4,0.7,2.1c0,0.1,0,0.2-0.1,0.3
		s-0.2,0.1-0.3,0.1h-0.9c-0.1,0-0.2,0-0.3-0.1c-0.1-0.1-0.2-0.2-0.2-0.3c-0.2-0.8-0.6-1.5-1.1-2c-0.6-0.5-1.5-0.8-2.7-0.8
		s-2.1,0.3-2.8,1c-0.7,0.7-1,1.6-1.1,2.8c0,0.4,0,1,0,1.7s0,1.3,0,1.7C21.6,45.5,22,46.4,22.6,47.1z"/>
	<path class="st0" d="M43.1,35.6c0.1,0.1,0.2,0.2,0.2,0.4v0.7c0,0.2-0.1,0.3-0.2,0.4c-0.1,0.1-0.2,0.2-0.4,0.2h-3.8v12
		c0,0.2-0.1,0.3-0.2,0.4c-0.1,0.1-0.2,0.2-0.4,0.2h-0.8c-0.2,0-0.3-0.1-0.4-0.2C37,49.5,37,49.4,37,49.2v-12h-3.8
		c-0.2,0-0.3-0.1-0.4-0.2c-0.1-0.1-0.2-0.2-0.2-0.4V36c0-0.2,0.1-0.3,0.2-0.4c0.1-0.1,0.2-0.2,0.4-0.2h9.6
		C42.9,35.4,43,35.5,43.1,35.6z"/>
	<path class="st0" d="M54.8,36.5c0.9,0.7,1.4,1.8,1.4,3.2c0,1-0.2,1.8-0.7,2.4c-0.4,0.7-1,1.2-1.8,1.5c-0.7,0.3-1.6,0.5-2.5,0.5
		h-3.8v5c0,0.2-0.1,0.3-0.2,0.4c-0.1,0.1-0.2,0.2-0.4,0.2H46c-0.2,0-0.3-0.1-0.4-0.2c-0.1-0.1-0.2-0.2-0.2-0.4V36
		c0-0.2,0.1-0.3,0.2-0.4c0.1-0.1,0.2-0.2,0.4-0.2h5.2C52.7,35.4,53.9,35.8,54.8,36.5z M51.2,42.4c1,0,1.8-0.2,2.3-0.6
		c0.5-0.4,0.8-1.1,0.8-1.9c0-1.7-1-2.5-3.1-2.5h-3.7v5.1L51.2,42.4L51.2,42.4z"/>
	<path class="st0" d="M57.4,35.9c0-0.1,0-0.2,0.1-0.3s0.2-0.1,0.3-0.1h0.9c0.2,0,0.4,0,0.5,0.1s0.2,0.2,0.3,0.4l3.7,7.1l3.7-7.1
		c0.1-0.2,0.2-0.3,0.3-0.4c0.1-0.1,0.3-0.1,0.5-0.1h0.9c0.1,0,0.2,0,0.3,0.1c0.1,0.1,0.1,0.2,0.1,0.3s0,0.2-0.1,0.3L64,45.6
		c-0.5,0.9-0.9,1.7-1.3,2.2c-0.3,0.5-0.8,1-1.3,1.4s-1.1,0.6-1.8,0.6h-1.1c-0.2,0-0.3-0.1-0.4-0.2c-0.1-0.1-0.2-0.2-0.2-0.4v-0.7
		c0-0.2,0.1-0.3,0.2-0.4c0.1-0.1,0.2-0.2,0.4-0.2h0.9c0.3,0,0.7-0.1,0.9-0.4c0.3-0.3,0.5-0.5,0.7-0.9c0.2-0.3,0.5-0.8,0.9-1.6
		l-4.7-9C57.4,36.1,57.4,36,57.4,35.9z"/>
	<path class="st0" d="M81.6,36.1c0.2-0.4,0.5-0.7,0.9-0.7h0.8c0.2,0,0.3,0.1,0.4,0.2c0.1,0.1,0.2,0.2,0.2,0.4v13.3
		c0,0.2-0.1,0.3-0.2,0.4c-0.1,0.1-0.2,0.2-0.4,0.2h-0.8c-0.2,0-0.3-0.1-0.4-0.2c-0.1-0.1-0.2-0.2-0.2-0.4v-9.7l-3.2,6.2
		c-0.1,0.2-0.2,0.4-0.4,0.5c-0.1,0.1-0.3,0.2-0.5,0.2H77c-0.2,0-0.4-0.1-0.5-0.2c-0.1-0.1-0.2-0.3-0.4-0.5L73,39.5v9.7
		c0,0.2-0.1,0.3-0.2,0.4c-0.1,0.1-0.2,0.2-0.4,0.2h-0.8c-0.2,0-0.3-0.1-0.4-0.2c-0.1-0.1-0.2-0.2-0.2-0.4V36c0-0.2,0.1-0.3,0.2-0.4
		c0.1-0.1,0.2-0.2,0.4-0.2h0.8c0.4,0,0.7,0.2,0.9,0.7l4.1,8L81.6,36.1z"/>
	<path class="st0" d="M89.3,47.9h6.9c0.2,0,0.3,0.1,0.4,0.2c0.1,0.1,0.2,0.2,0.2,0.4v0.7c0,0.2-0.1,0.3-0.2,0.4
		c-0.1,0.1-0.2,0.2-0.4,0.2h-8.3c-0.2,0-0.3-0.1-0.4-0.2c-0.1-0.1-0.2-0.2-0.2-0.4V36c0-0.2,0.1-0.3,0.2-0.4
		c0.1-0.1,0.2-0.2,0.4-0.2H96c0.2,0,0.3,0.1,0.4,0.2c0.1,0.1,0.2,0.2,0.2,0.4v0.7c0,0.2-0.1,0.3-0.2,0.4c-0.1,0.1-0.2,0.2-0.4,0.2
		h-6.7v4.3h6.3c0.2,0,0.3,0.1,0.4,0.2c0.1,0.1,0.2,0.2,0.2,0.4v0.7c0,0.2-0.1,0.3-0.2,0.4c-0.1,0.1-0.2,0.2-0.4,0.2h-6.3V47.9z"/>
	<path class="st0" d="M110.5,35.6c0.1,0.1,0.2,0.2,0.2,0.4v13.3c0,0.2-0.1,0.3-0.2,0.4c-0.1,0.1-0.2,0.2-0.4,0.2h-0.8
		c-0.2,0-0.3-0.1-0.4-0.2c-0.1-0.1-0.2-0.2-0.2-0.4v-5.8h-7.2v5.8c0,0.2-0.1,0.3-0.2,0.4c-0.1,0.1-0.2,0.2-0.4,0.2h-0.8
		c-0.2,0-0.3-0.1-0.4-0.2c-0.1-0.1-0.2-0.2-0.2-0.4V36c0-0.2,0.1-0.3,0.2-0.4c0.1-0.1,0.2-0.2,0.4-0.2h0.8c0.2,0,0.3,0.1,0.4,0.2
		c0.1,0.1,0.2,0.2,0.2,0.4v5.6h7.2V36c0-0.2,0.1-0.3,0.2-0.4c0.1-0.1,0.2-0.2,0.4-0.2h0.8C110.3,35.4,110.4,35.5,110.5,35.6z"/>
	<path class="st0" d="M123.5,35.6c0.1,0.1,0.2,0.2,0.2,0.4v0.7c0,0.2-0.1,0.3-0.2,0.4c-0.1,0.1-0.2,0.2-0.4,0.2h-3.8v12
		c0,0.2-0.1,0.3-0.2,0.4c-0.1,0.1-0.2,0.2-0.4,0.2h-0.8c-0.2,0-0.3-0.1-0.4-0.2c-0.1-0.1-0.2-0.2-0.2-0.4v-12h-3.8
		c-0.2,0-0.3-0.1-0.4-0.2c-0.1-0.1-0.2-0.2-0.2-0.4V36c0-0.2,0.1-0.3,0.2-0.4c0.1-0.1,0.2-0.2,0.4-0.2h9.6
		C123.2,35.4,123.4,35.5,123.5,35.6z"/>
	<path class="st0" d="M2,43.4v5.8c0,0.2-0.1,0.3-0.2,0.4c-0.1,0.1-0.2,0.2-0.4,0.2H0.6c-0.2,0-0.3-0.1-0.4-0.2S0,49.4,0,49.2V36
		c0-0.2,0.1-0.3,0.2-0.4c0.1-0.1,0.2-0.2,0.4-0.2h0.8c0.2,0,0.3,0.1,0.4,0.2C1.9,35.7,2,35.8,2,36v5.6V43.4z"/>
</g>
</svg>
